<svg xmlns="http://www.w3.org/2000/svg" version="1.1" xmlns:xlink="http://www.w3.org/1999/xlink" xmlns:svgjs="http://svgjs.com/svgjs" width="1440" height="560" preserveAspectRatio="none" viewBox="0 0 1440 560"><g mask="url(&quot;#SvgjsMask1001&quot;)" fill="none"><path d="M1464 560L0 560 L0 330.54Q75.56 286.1, 120 361.65Q140.95 262.6, 240 283.55Q311.63 235.18, 360 306.81Q435.82 262.63, 480 338.45Q555.5 293.95, 600 369.45Q625.86 323.31, 672 349.17Q679.3 284.47, 744 291.76Q798.63 226.38, 864 281.01Q929.41 274.42, 936 339.83Q949.08 280.91, 1008 293.99Q1052.34 266.33, 1080 310.66Q1149.46 260.13, 1200 329.59Q1278.35 287.93, 1320 366.28Q1361.46 335.74, 1392 377.2Q1415.81 329.01, 1464 352.82z" fill="#182f5d"></path><path d="M1464 560L0 560 L0 376.17Q55.86 312.03, 120 367.9Q167.39 343.29, 192 390.68Q240.95 367.63, 264 416.58Q280.97 361.55, 336 378.53Q364.38 334.9, 408 363.28Q496.14 331.42, 528 419.56Q542.56 362.12, 600 376.67Q625.47 330.14, 672 355.61Q730.94 342.56, 744 401.5Q826.2 363.7, 864 445.9Q881.58 343.48, 984 361.05Q1058.01 315.06, 1104 389.08Q1151.57 364.65, 1176 412.22Q1183.27 347.49, 1248 354.76Q1289.37 324.13, 1320 365.49Q1393.28 366.77, 1392 440.06Q1385.21 361.27, 1464 354.48z" fill="#25467d"></path><path d="M1464 560L0 560 L0 475.07Q31.79 434.86, 72 466.65Q126.14 448.79, 144 502.94Q165.95 404.88, 264 426.83Q329.73 372.56, 384 438.29Q457.67 391.96, 504 465.62Q572.4 414.02, 624 482.42Q696.08 434.5, 744 506.58Q773.79 416.37, 864 446.15Q906.65 416.8, 936 459.45Q992.42 443.88, 1008 500.3Q1032.79 453.09, 1080 477.87Q1111.16 389.03, 1200 420.19Q1277.47 377.66, 1320 455.13Q1382.88 446, 1392 508.88Q1413.82 458.7, 1464 480.52z" fill="#356cb1"></path><path d="M1512 560L0 560 L0 527.39Q26.99 482.38, 72 509.36Q124.55 489.91, 144 542.46Q195.13 521.6, 216 572.73Q243.2 527.93, 288 555.13Q340.25 487.38, 408 539.63Q485.29 496.92, 528 574.22Q556.14 482.36, 648 510.5Q698.1 488.6, 720 538.7Q775.3 522, 792 577.3Q817.23 482.52, 912 507.75Q942.49 466.24, 984 496.73Q1043.49 484.23, 1056 543.72Q1122.12 489.84, 1176 555.95Q1200.83 508.78, 1248 533.61Q1325.32 490.93, 1368 568.26Q1409.68 537.94, 1440 579.62Q1441.04 508.66, 1512 509.7z" fill="white"></path></g><defs><mask id="SvgjsMask1001"><rect width="1440" height="560" fill="#ffffff"></rect></mask></defs></svg>